<svg width="9" height="18" viewBox="0 0 9 18" fill="none" xmlns="http://www.w3.org/2000/svg">
<path d="M5.64623 10.1469C5.64623 10.2996 5.64623 10.437 5.64623 10.5743C5.64623 12.8033 5.64623 15.0322 5.64623 17.2611C5.64623 17.7648 5.55567 17.8564 5.0727 17.8564C4.36334 17.8564 3.65398 17.8564 2.94461 17.8564C2.49183 17.8564 2.41636 17.7801 2.41636 17.3374C2.41636 15.078 2.41636 12.8338 2.41636 10.5743C2.41636 10.437 2.41636 10.2996 2.41636 10.1316C1.79756 10.1316 1.20894 10.1316 0.635409 10.1316C0.167531 10.1316 0.0166016 9.97896 0.0166016 9.5057C0.0166016 8.80344 0.0166016 8.08592 0.0166016 7.38366C0.0166016 6.87987 0.16753 6.74247 0.650501 6.7272C1.22403 6.7272 1.79756 6.7272 2.41636 6.7272C2.41636 6.55927 2.41636 6.42188 2.41636 6.28448C2.43146 5.33796 2.37108 4.39144 2.49183 3.47545C2.74841 1.36868 4.04639 0.147368 6.14429 0.0252365C6.86875 -0.0205628 7.6083 0.00996971 8.34785 0.00996971C8.69498 0.00996971 8.86101 0.177901 8.86101 0.529029C8.86101 1.18549 8.86101 1.85721 8.86101 2.51367C8.86101 2.88006 8.71008 3.01746 8.34785 3.01746C7.80451 3.03273 7.26117 3.01746 6.73292 3.07853C6.1292 3.13959 5.72169 3.50599 5.69151 4.10138C5.64623 4.9563 5.69151 5.81122 5.69151 6.71194C6.47634 6.71194 7.26117 6.71194 8.0309 6.71194C8.93647 6.71194 8.99684 6.75774 8.92138 7.67373C8.86101 8.31492 8.78554 8.97137 8.69498 9.61256C8.64971 10.0095 8.49878 10.1316 8.10636 10.1316C7.41209 10.1316 6.73292 10.1316 6.03865 10.1316C5.933 10.1316 5.81225 10.1316 5.66132 10.1469H5.64623Z" fill="white"/>
</svg>
