<svg width="18" height="18" viewBox="0 0 18 18" fill="none" xmlns="http://www.w3.org/2000/svg">
<path d="M17.6317 9.09949C17.6317 10.2387 17.6317 11.3779 17.6317 12.5171C17.6317 15.1233 15.9291 17.1988 13.3831 17.7294C13.0395 17.8075 12.6802 17.8231 12.3366 17.8387C10.0249 17.8387 7.72882 17.8387 5.41712 17.8387C2.80864 17.8387 0.731232 16.1377 0.200165 13.5783C0.122067 13.2194 0.106445 12.8605 0.106445 12.4859C0.106445 10.2075 0.106445 7.92906 0.106445 5.65063C0.106445 3.02887 1.80898 0.937705 4.3706 0.407111C4.71423 0.344688 5.07348 0.313477 5.41712 0.313477C7.7132 0.313477 10.0093 0.313477 12.3054 0.313477C14.9295 0.313477 17.0225 2.0145 17.5379 4.58944C17.616 4.94837 17.6317 5.3073 17.6317 5.68184C17.6317 6.82106 17.6317 7.96027 17.6317 9.09949ZM1.87146 9.08388C1.87146 10.2543 1.87146 11.4091 1.87146 12.5796C1.87146 12.6888 1.87146 12.8136 1.88708 12.9229C1.9808 14.5459 3.40218 16.0284 5.04224 16.0596C7.58824 16.1065 10.1342 16.1065 12.6802 16.0596C14.3671 16.0284 15.8354 14.5615 15.851 12.8917C15.8979 10.3635 15.8979 7.83543 15.851 5.2917C15.8198 3.59067 14.3359 2.13934 12.6334 2.10813C10.1186 2.07692 7.60386 2.07692 5.10472 2.10813C3.40218 2.13934 1.94956 3.59067 1.88708 5.27609C1.84022 6.54015 1.88708 7.80421 1.88708 9.06828L1.87146 9.08388Z" fill="white"/>
<path d="M4.50344 9.20958C4.50344 6.7017 6.53762 4.67973 9.04122 4.6954C11.5605 4.6954 13.5633 6.73305 13.5633 9.27227C13.5633 11.7645 11.5135 13.7864 8.99428 13.7708C6.49068 13.7708 4.48779 11.7331 4.48779 9.20958H4.50344ZM9.04122 12.0153C10.559 12.0153 11.8108 10.7613 11.8108 9.24093C11.8108 7.72053 10.5434 6.43524 9.00992 6.45092C7.49211 6.45092 6.24031 7.70485 6.24031 9.22525C6.24031 10.7457 7.50776 12.0309 9.04122 12.0153Z" fill="white"/>
<path d="M13.399 3.44336C13.9964 3.44336 14.4865 3.9061 14.5018 4.52309C14.5172 5.12466 13.9964 5.6491 13.399 5.63368C12.8017 5.63368 12.3115 5.12466 12.3115 4.53852C12.3115 3.93695 12.8017 3.45878 13.399 3.44336Z" fill="white"/>
</svg>
