<svg width="19" height="18" viewBox="0 0 19 18" fill="none" xmlns="http://www.w3.org/2000/svg">
<path d="M18.3192 17.8564C17.8394 17.8564 17.4281 17.8564 17.0168 17.8564C15.8001 17.8564 14.6005 17.8564 13.3838 17.8564C13.1096 17.8564 12.9554 17.7893 12.8012 17.5544C11.3274 15.4401 9.83653 13.3257 8.36278 11.2114C8.31137 11.1275 8.24281 11.0436 8.15713 10.9429C7.74585 11.396 7.35171 11.8491 6.97471 12.2854C5.39813 14.0809 3.82155 15.8596 2.26211 17.6551C2.14215 17.7893 2.02219 17.8564 1.81655 17.8564C1.40527 17.8564 0.993988 17.8564 0.51416 17.8564C2.86189 15.1884 5.15822 12.5706 7.47167 9.9361C5.15822 6.64714 2.86189 3.35818 0.531301 0.0356583C0.668394 0.0356583 0.736938 0.0188775 0.822621 0.0188775C2.3992 0.0188775 3.97578 0.0188775 5.55236 0.0188775C5.758 0.0188775 5.87795 0.10278 5.99791 0.253804C7.43739 2.31779 8.89402 4.38178 10.3506 6.44577C10.3678 6.47933 10.402 6.51289 10.4363 6.56324C10.8647 6.0766 11.276 5.60675 11.7044 5.1369C13.1268 3.5092 14.5663 1.8815 15.9886 0.253804C16.1428 0.0692193 16.3142 -0.0146829 16.5541 0.00209755C16.9311 0.0188779 17.3081 0.00209755 17.788 0.00209755C15.5431 2.55272 13.3496 5.053 11.1561 7.55328C13.5552 10.9597 15.9372 14.3661 18.3706 17.8397L18.3192 17.8564ZM2.67339 1.17673C2.67339 1.17673 2.70766 1.26063 2.70766 1.27741C6.35778 6.37865 9.99076 11.4799 13.6409 16.5811C13.7094 16.665 13.8637 16.7489 13.9836 16.7489C14.6177 16.7489 15.2517 16.7489 15.8858 16.7489C15.9543 16.7489 16.04 16.7489 16.1257 16.7154C16.04 16.5979 15.9886 16.514 15.9372 16.4469C14.6862 14.7017 13.4352 12.9566 12.2014 11.2114C9.8708 7.93923 7.54022 4.68383 5.19249 1.41165C5.12394 1.31097 5.00398 1.19351 4.9183 1.19351C4.18142 1.17673 3.4274 1.19351 2.65625 1.19351L2.67339 1.17673Z" fill="white"/>
</svg>
