<svg width="17" height="17" viewBox="0 0 17 17" fill="none" xmlns="http://www.w3.org/2000/svg">
<path d="M14.1489 2.37346C13.3985 1.61788 12.5052 1.01895 11.5212 0.611492C10.537 0.204033 9.4816 -0.00380408 8.41637 5.27085e-05C6.99235 0.00144402 5.5936 0.376729 4.36031 1.08832C3.12703 1.79992 2.10249 2.82285 1.38926 4.05466C0.676031 5.28648 0.299178 6.68397 0.296414 8.1071C0.293661 9.53033 0.665108 10.9292 1.37356 12.1638L0.227051 16.3684L4.52644 15.2431C5.71364 15.9031 7.04763 16.255 8.40614 16.2661C10.5658 16.2662 12.638 15.4137 14.1716 13.8943C15.7054 12.375 16.5765 10.3117 16.5955 8.15355C16.5883 7.07661 16.3684 6.01169 15.9486 5.01983C15.5288 4.02795 14.9172 3.12866 14.1489 2.37346ZM8.41637 14.8646C7.20609 14.8654 6.01794 14.5403 4.97686 13.9234L4.73118 13.7699L2.18225 14.4451L2.85787 11.9592L2.69408 11.7034C1.8232 10.2985 1.49818 8.62311 1.78059 6.99467C2.06299 5.36627 2.93322 3.89793 4.22641 2.86782C5.51961 1.8377 7.1459 1.31736 8.79728 1.40537C10.4487 1.49337 12.0105 2.18361 13.1867 3.34533C14.4724 4.6018 15.2084 6.31569 15.234 8.11262C15.2178 9.90895 14.4923 11.6262 13.2155 12.8907C11.9388 14.1552 10.2139 14.8647 8.41637 14.8646ZM12.1118 9.81084C11.9071 9.70854 10.9141 9.21749 10.7299 9.15611C10.5456 9.09472 10.4023 9.0538 10.2692 9.25841C10.069 9.53268 9.8536 9.7956 9.6243 10.0461C9.5117 10.1894 9.38886 10.1996 9.18412 10.0461C8.01684 9.58516 7.04435 8.73605 6.43046 7.64203C6.21549 7.28398 6.6352 7.30444 7.02419 6.53717C7.05295 6.48183 7.0679 6.42044 7.0679 6.35814C7.0679 6.29584 7.05295 6.23446 7.02419 6.17911C7.02419 6.0768 6.56354 5.07424 6.39975 4.67526C6.23597 4.27628 6.07218 4.33766 5.9391 4.32743H5.53987C5.43643 4.32902 5.33453 4.35266 5.24096 4.39676C5.1474 4.44087 5.06434 4.50443 4.99733 4.58319C4.76764 4.80639 4.58849 5.0762 4.47195 5.37444C4.3554 5.67267 4.30418 5.9924 4.32171 6.31211C4.3859 7.07743 4.67429 7.80684 5.15088 8.4093C6.02325 9.71447 7.21879 10.7718 8.62111 11.4784C9.35661 11.9074 10.2114 12.0869 11.0574 11.9899C11.3391 11.934 11.606 11.8195 11.8405 11.6538C12.0752 11.4882 12.2722 11.275 12.4189 11.0282C12.5548 10.7271 12.5976 10.3922 12.5417 10.0666C12.4496 9.96429 12.3165 9.91314 12.1118 9.81084Z" fill="white"/>
</svg>
